<svg xmlns="http://www.w3.org/2000/svg" viewBox="0 0 512 512" role="img" aria-labelledby="title desc">
  <title id="title">お小遣い3人管理アイコン</title>
  <desc id="desc">円マークのコインと本を組み合わせたアイコン</desc>
  <defs>
    <linearGradient id="bg" x1="64" y1="40" x2="448" y2="472" gradientUnits="userSpaceOnUse">
      <stop offset="0" stop-color="#2f6df6"/>
      <stop offset="0.55" stop-color="#1f8fdd"/>
      <stop offset="1" stop-color="#0d9488"/>
    </linearGradient>
    <linearGradient id="book" x1="156" y1="292" x2="356" y2="420" gradientUnits="userSpaceOnUse">
      <stop offset="0" stop-color="#fef3c7"/>
      <stop offset="1" stop-color="#f8fafc"/>
    </linearGradient>
    <filter id="shadow" x="-20%" y="-20%" width="140%" height="150%" color-interpolation-filters="sRGB">
      <feDropShadow dx="0" dy="14" stdDeviation="16" flood-color="#0f172a" flood-opacity="0.22"/>
    </filter>
  </defs>
  <rect width="512" height="512" rx="112" fill="url(#bg)"/>
  <path d="M92 126c47-38 121-55 184-42 71 15 127 66 146 134 16 59 1 122-39 169-38 44-98 68-160 62-70-7-131-47-159-105-34-70-21-164 28-218Z" fill="#ffffff" opacity="0.12"/>
  <g filter="url(#shadow)">
    <circle cx="256" cy="207" r="107" fill="#ffffff"/>
    <circle cx="256" cy="207" r="87" fill="#f8fafc" stroke="#dbeafe" stroke-width="10"/>
    <text x="256" y="244" fill="#0f172a" font-family="Arial, sans-serif" font-size="116" font-weight="900" text-anchor="middle">¥</text>
  </g>
  <g filter="url(#shadow)">
    <path d="M138 304c0-19 15-34 34-34h84c20 0 38 8 50 22 12-14 30-22 50-22h18c19 0 34 15 34 34v116c0 12-10 22-22 22h-76c-22 0-42-8-54-23-12 15-32 23-54 23h-42c-12 0-22-10-22-22V304Z" fill="#0f172a" opacity="0.18"/>
    <path d="M124 286c0-18 14-32 32-32h73c22 0 42 9 55 25v146c-13-16-33-25-55-25h-73c-18 0-32-14-32-32V286Z" fill="url(#book)"/>
    <path d="M284 279c13-16 33-25 55-25h17c18 0 32 14 32 32v82c0 18-14 32-32 32h-17c-22 0-42 9-55 25V279Z" fill="#ffffff"/>
    <path d="M284 279v146" stroke="#bfdbfe" stroke-width="8" stroke-linecap="round"/>
    <path d="M160 305h82M160 342h82M326 305h28M326 342h28" stroke="#2563eb" stroke-width="12" stroke-linecap="round"/>
  </g>
</svg>
